<?xml version="1.0" encoding="UTF-8"?>
<svg id="Layer_2" data-name="Layer 2" xmlns="http://www.w3.org/2000/svg" viewBox="0 0 260.47 247.32">
  <defs>
    <style>
      .cls-1 {
        fill: #48cbff;
      }

      .cls-1, .cls-2 {
        stroke-width: 0px;
      }

      .cls-2 {
        fill: #c8efff;
      }
    </style>
  </defs>
  <g id="Layer_1-2" data-name="Layer 1">
    <g>
      <path class="cls-2" d="M250.75,65.32h-68.28v172.28c0,5.37,4.35,9.72,9.72,9.72h58.56c5.37,0,9.72-4.35,9.72-9.72V75.04c0-5.37-4.35-9.72-9.72-9.72Z"/>
      <path class="cls-2" d="M78,0H8.69C3.89,0,0,3.89,0,8.69v164.61c0,4.8,3.89,8.69,8.69,8.69h60.61c4.8,0,8.69-3.89,8.69-8.69V0Z"/>
      <path class="cls-2" d="M169.13,52.13C169.13,23.41,134.23.13,91.18.13v52h77.96-.01Z"/>
      <path class="cls-1" d="M169.27,65.3h-77.96v67.14h.08c1.33,27.94,35.67,50.33,77.88,50.33v-50.33h0v-67.14Z"/>
    </g>
  </g>
</svg>