<?xml version="1.0" encoding="UTF-8"?>
<svg id="Layer_2" data-name="Layer 2" xmlns="http://www.w3.org/2000/svg" viewBox="0 0 321.94 362.88">
  <defs>
    <style>
      .cls-1 {
        fill: #48cbff;
      }

      .cls-2 {
        fill: #c8efff;
      }
    </style>
  </defs>
  <g id="Layer_1-2" data-name="Layer 1">
    <g>
      <g>
        <rect class="cls-1" x="110.97" y="100.44" width="100" height="162"/>
        <path class="cls-2" d="M88,0H12C5.4,0,0,5.4,0,12v238.44c0,6.63,5.37,12,12,12h88V12c0-6.6-5.4-12-12-12Z"/>
        <path class="cls-2" d="M309.94,100.44h-88v250.44c0,6.63,5.37,12,12,12h76c6.63,0,12-5.37,12-12V112.44c0-6.63-5.37-12-12-12Z"/>
      </g>
      <path class="cls-2" d="M110.97,35.19c55.23,0,100,25.05,100,55.96h-100v-55.96Z"/>
    </g>
  </g>
</svg>