<?xml version="1.0" encoding="UTF-8"?>
<svg id="Layer_2" data-name="Layer 2" xmlns="http://www.w3.org/2000/svg" viewBox="0 0 100 100">
  <defs>
    <style>
      .cls-1 {
        fill: #48cbff;
      }

      .cls-1, .cls-2 {
        stroke-width: 0px;
      }

      .cls-2 {
        fill: #171717;
      }
    </style>
  </defs>
  <g id="Layer_1-2" data-name="Layer 1">
    <g>
      <rect class="cls-1" width="100" height="100" rx="16" ry="16"/>
      <path class="cls-2" d="M80.23,22.84H19.77c-5.39,0-9.77,4.38-9.77,9.77v34.77c0,5.39,4.38,9.77,9.77,9.77h60.46c5.39,0,9.77-4.38,9.77-9.77v-34.77c0-5.39-4.38-9.77-9.77-9.77ZM75.45,29.22l-25.45,16.4-25.45-16.4h50.91ZM80.23,70.78H19.77c-1.87,0-3.4-1.52-3.4-3.4v-34.59l31.66,20.36s.09.04.13.07c.05.03.09.05.14.07.25.13.5.23.76.3.03,0,.05.01.08.02.28.07.57.11.86.11h0c.29,0,.57-.04.86-.11.03,0,.05,0,.08-.02.26-.07.51-.17.76-.3.05-.02.09-.05.14-.07.04-.02.09-.04.13-.07l31.66-20.36v34.59c0,1.87-1.53,3.4-3.4,3.4Z"/>
    </g>
  </g>
</svg>