<?xml version="1.0" encoding="UTF-8"?>
<svg id="Layer_2" data-name="Layer 2" xmlns="http://www.w3.org/2000/svg" viewBox="0 0 178.94 112.82">
  <defs>
    <style>
      .cls-1 {
        fill: #7da3d8;
        stroke-width: 0px;
      }
    </style>
  </defs>
  <g id="Layer_1-2" data-name="Layer 1">
    <g>
      <path class="cls-1" d="M0,80.78v-9.24l11.95-2.05V12.83L0,10.78V1.47h24.85l1.03,11.8c2.64-4.2,5.95-7.46,9.93-9.79,3.98-2.32,8.52-3.48,13.6-3.48,8.55,0,15.17,2.5,19.87,7.51,4.69,5.01,7.04,12.74,7.04,23.2v38.78l11.95,2.05v9.24h-38.34v-9.24l11.95-2.05V31.01c0-6.99-1.38-11.95-4.14-14.88-2.76-2.93-6.98-4.4-12.65-4.4-4.15,0-7.83,1-11.03,3.01-3.2,2-5.75,4.74-7.66,8.21v46.55l11.95,2.05v9.24H0Z"/>
      <path class="cls-1" d="M115.68,112.82c-1.12,0-2.59-.13-4.4-.4-1.81-.27-3.2-.53-4.18-.77l1.47-11.36c.83.1,1.98.18,3.45.26s2.47.11,3.01.11c3.08,0,5.58-1.17,7.51-3.52s3.73-5.55,5.39-9.6l3.45-8.36L103.29,11.95l-8.5-1.17V1.47h33.28v9.31l-9.6,1.47,15.47,39.66,3.74,10.34h.44l18.33-50-10.12-1.47V1.47h32.62v9.31l-8.21,1.17-31.23,81c-1.47,3.81-3.24,7.22-5.31,10.23-2.08,3-4.62,5.36-7.62,7.07-3.01,1.71-6.63,2.57-10.89,2.57Z"/>
    </g>
  </g>
</svg>