<?xml version="1.0" encoding="UTF-8"?>
<svg id="Layer_2" data-name="Layer 2" xmlns="http://www.w3.org/2000/svg" viewBox="0 0 260.47 247.32">
  <defs>
    <style>
      .cls-1 {
        fill: #48cbff;
        stroke-width: 0px;
      }
    </style>
  </defs>
  <g id="Layer_1-2" data-name="Layer 1">
    <path class="cls-1" d="M260.47,75.04v162.56c0,5.37-4.35,9.72-9.72,9.72h-58.56c-5.37,0-9.72-4.35-9.72-9.72V65.32h68.28c5.37,0,9.72,4.35,9.72,9.72ZM78,0H8.69C3.89,0,0,3.89,0,8.69v164.61c0,4.8,3.89,8.69,8.69,8.69h60.61c4.8,0,8.69-3.89,8.69-8.69V0ZM169.13,52.13C169.13,23.41,134.23.13,91.18.13v52h77.96-.01ZM169.27,65.3h-77.96v67.14h.08c1.33,27.94,35.67,50.33,77.88,50.33v-50.33h0v-67.14Z"/>
  </g>
</svg>