<?xml version="1.0" encoding="UTF-8"?>
<svg id="Layer_2" data-name="Layer 2" xmlns="http://www.w3.org/2000/svg" viewBox="0 0 754.32 754.32">
  <defs>
    <style>
      .cls-1 {
        fill: none;
        stroke: #333;
        stroke-linejoin: round;
        stroke-width: 30px;
      }
    </style>
  </defs>
  <g id="phone">
    <path class="cls-1" d="M739.32,603.16c-14.62-38.01-141.47-110.91-176.41-125.73-32.16,10.72-85.77,35.09-104.29,49.71-37.91-24.3-94.24-68.97-128.38-103.05-34.08-34.14-78.74-90.47-103.05-128.38,14.62-18.52,38.99-72.13,49.71-104.29-14.82-34.95-87.72-161.79-125.73-176.41C103.4,21.82,49.8,81.28,15.68,127.09,2.09,247.51,195.56,458.88,244.2,509.58h-.01c.09.1.18.19.28.28.09.09.18.19.26.28h.01c50.69,48.63,262.07,242.1,382.49,228.51,45.81-34.11,105.26-87.72,112.09-135.48Z"/>
  </g>
</svg>