<?xml version="1.0" encoding="UTF-8"?>
<svg id="Layer_2" data-name="Layer 2" xmlns="http://www.w3.org/2000/svg" viewBox="0 0 596.22 174.93">
  <defs>
    <style>
      .cls-1 {
        fill: #60935d;
        stroke-width: 0px;
      }
    </style>
  </defs>
  <g id="Layer_1-2" data-name="Layer 1">
    <g>
      <path class="cls-1" d="M251.36,98.14c2.02,2.83,3.02,6.55,3.02,11.16,0,12.87-7.54,19.3-22.61,19.3h-27.36c-1.92,0-2.88-1.01-2.88-3.02v-9.22c0-1.05.19-1.8.58-2.23.38-.43,1.15-.65,2.3-.65h24.05c4.7,0,7.06-1.44,7.06-4.32v-.72c0-2.3-1.97-4.51-5.9-6.62l-14.26-7.92c-4.9-2.5-8.5-5.18-10.8-8.06-2.3-2.88-3.46-6.58-3.46-11.09,0-6.72,1.78-11.66,5.33-14.83,3.55-3.17,9.12-4.75,16.7-4.75h24.05c1.92,0,2.88,1.01,2.88,3.02v9.36c0,1.06-.19,1.8-.58,2.23-.38.43-1.15.65-2.3.65h-20.02c-4.7,0-7.06,1.2-7.06,3.6v.72c0,2.11,2.06,4.27,6.19,6.48l14.54,8.64c4.99,2.69,8.5,5.45,10.51,8.28ZM302.91,112.76h-5.76c-3.07,0-5.28-.65-6.62-1.94-1.35-1.3-2.02-3.43-2.02-6.41v-31.82c0-1.06.58-1.58,1.73-1.58h11.23c1.15,0,1.94-.22,2.38-.65s.65-1.17.65-2.23v-9.94c0-2.02-1.01-3.02-3.02-3.02h-11.23c-1.15,0-1.73-.53-1.73-1.58v-13.68c0-2.02-1.01-3.02-3.02-3.02h-12.1c-2.11,0-3.17,1.01-3.17,3.02v13.68c0,1.06-.53,1.58-1.58,1.58h-5.76c-2.02,0-3.02,1.01-3.02,3.02v9.94c0,1.15.22,1.92.65,2.3.43.38,1.22.58,2.38.58h5.76c1.06,0,1.58.53,1.58,1.58v32.69c0,7.49,2.09,13.25,6.26,17.28,4.18,4.03,10.06,6.05,17.64,6.05h8.78c1.15,0,1.94-.22,2.38-.65.43-.43.65-1.17.65-2.23v-9.94c0-2.02-1.01-3.02-3.02-3.02ZM374.19,55.16h-12.1c-2.02,0-3.02,1.01-3.02,3.02v43.63c0,7.3-3.31,10.94-9.94,10.94h-5.33c-2.98,0-5.11-.65-6.41-1.94s-1.94-3.48-1.94-6.55v-46.08c0-2.02-1.01-3.02-3.02-3.02h-12.24c-2.02,0-3.02,1.01-3.02,3.02v46.94c0,7.58,1.89,13.39,5.69,17.42,3.79,4.03,9.38,6.05,16.78,6.05h4.75c2.97,0,5.81-.65,8.5-1.94,2.69-1.3,4.56-3.24,5.62-5.83h.58v4.75c0,2.02,1.01,3.02,3.02,3.02h12.1c2.11,0,3.17-1.01,3.17-3.02V58.18c0-2.02-1.06-3.02-3.17-3.02ZM453.1,30.39v95.18c0,2.02-1.01,3.02-3.02,3.02h-12.24c-2.02,0-3.02-1.01-3.02-3.02v-4.75h-.58c-1.06,2.59-2.93,4.54-5.62,5.83-2.69,1.3-5.52,1.94-8.5,1.94h-5.9c-7.39,0-12.98-2.02-16.78-6.05-3.79-4.03-5.69-9.84-5.69-17.42v-26.5c0-7.58,1.89-13.39,5.69-17.42,3.79-4.03,9.38-6.05,16.78-6.05h5.9c2.97,0,5.81.65,8.5,1.94,2.69,1.3,4.56,3.24,5.62,5.83h.58V30.39c0-2.02,1.01-3.02,3.02-3.02h12.24c2.02,0,3.02,1.01,3.02,3.02ZM434.81,81.94c0-7.29-3.31-10.94-9.94-10.94h-6.48c-3.07,0-5.23.65-6.48,1.94-1.25,1.3-1.87,3.48-1.87,6.55v24.77c0,3.07.62,5.26,1.87,6.55,1.25,1.3,3.41,1.94,6.48,1.94h6.48c6.62,0,9.94-3.65,9.94-10.94v-19.87ZM472.41,18h12.24c1.59,0,2.88-1.29,2.88-2.88V2.69c0-1.79-.95-2.69-2.83-2.69h-12.28c-1.59,0-2.88,1.29-2.88,2.88v12.24c0,1.59,1.29,2.88,2.88,2.88ZM526.41,55h-11.86c-1.67,0-3.02,1.35-3.02,3.02v43.96c0,7.35-3.26,11.02-9.78,11.02h-6c-2.93,0-5.03-.65-6.31-1.96s-1.91-3.5-1.91-6.6V29.14c0-1.43-.99-2.14-2.98-2.14h-12.19c-1.89,0-2.83.71-2.83,2.14v76.39c0,7.58,1.89,13.39,5.69,17.42,3.79,4.03,9.38,6.05,16.78,6.05h5.08c2.93,0,5.72-.67,8.36-2,2.64-1.33,4.49-3.33,5.53-6h.57v4.89c0,2.07.99,3.11,2.98,3.11h11.91c2.08,0,3.12-1.04,3.12-3.11V58.05c0-2.03-1.04-3.05-3.12-3.05ZM593.19,98.14c-2.02-2.83-5.52-5.59-10.51-8.28l-14.54-8.64c-4.13-2.21-6.19-4.37-6.19-6.48v-.72c0-2.4,2.35-3.6,7.06-3.6h20.02c1.15,0,1.92-.22,2.3-.65.38-.43.58-1.17.58-2.23v-9.36c0-2.02-.96-3.02-2.88-3.02h-24.05c-7.58,0-13.15,1.58-16.7,4.75-3.55,3.17-5.33,8.11-5.33,14.83,0,4.51,1.15,8.21,3.46,11.09,2.3,2.88,5.9,5.57,10.8,8.06l14.26,7.92c3.94,2.11,5.9,4.32,5.9,6.62v.72c0,2.88-2.35,4.32-7.06,4.32h-24.05c-1.15,0-1.92.22-2.3.65-.38.43-.58,1.18-.58,2.23v9.22c0,2.02.96,3.02,2.88,3.02h27.36c15.07,0,22.61-6.43,22.61-19.3,0-4.61-1.01-8.33-3.02-11.16Z"/>
      <path class="cls-1" d="M10.01,79.87c7.18,2.37,16.2,3.95,27.02,3.95.45,0,.9,0,1.35,0v81.11c-.61,0-1.21.01-1.81.01-12.73,0-21.79-2.11-26.49-6.14l-.07-78.92M0,62.98l.09,99.63c6.14,8.55,18.75,12.33,36.49,12.33,3.71,0,7.65-.17,11.81-.49v-101.39c-3.67.51-7.51.76-11.35.76-15.27,0-30.7-3.9-37.03-10.84h0ZM122.21,17.82L53.72,56.64c-10.18,5.84-28.86.5-23.4-4.38l46.92-26.99h-24.69C27.51,38.6-4.22,52.44,2.32,60c6.15,6.92,30.26,13.34,50.48,8.65v105.27l27.86-19.69V55.9l48.99-28.85c7.44-4.1,30-1.03,18.59,5l-47.36,26.44h0v108.31h17.07l.16-108.21h.13s57.3-31.41,57.3-31.41c7.07-7.44-43.71-17.18-53.33-9.36ZM167.51,47.65v77.92l-35.74,22.89v-80.94l35.74-19.87M177.51,30.65l-55.74,30.99v105.11l55.74-35.7V30.65h0Z"/>
    </g>
  </g>
</svg>