<?xml version="1.0" encoding="UTF-8"?>
<svg id="Layer_2" data-name="Layer 2" xmlns="http://www.w3.org/2000/svg" viewBox="0 0 100 100">
  <defs>
    <style>
      .cls-1 {
        fill: #171717;
        fill-rule: evenodd;
      }

      .cls-1, .cls-2 {
        stroke-width: 0px;
      }

      .cls-2 {
        fill: #48cbff;
      }
    </style>
  </defs>
  <g id="Layer_1-2" data-name="Layer 1">
    <g>
      <rect class="cls-2" width="100" height="100" rx="16" ry="16"/>
      <path class="cls-1" d="M50,10.99c-22.1,0-40,17.9-40,40,0,17.7,11.45,32.65,27.35,37.95,2,.35,2.75-.85,2.75-1.9,0-.95-.05-4.1-.05-7.45-10.05,1.85-12.65-2.45-13.45-4.7-.45-1.15-2.4-4.7-4.1-5.65-1.4-.75-3.4-2.6-.05-2.65,3.15-.05,5.4,2.9,6.15,4.1,3.6,6.05,9.35,4.35,11.65,3.3.35-2.6,1.4-4.35,2.55-5.35-8.9-1-18.2-4.45-18.2-19.75,0-4.35,1.55-7.95,4.1-10.75-.4-1-1.8-5.1.4-10.6,0,0,3.35-1.05,11,4.1,3.2-.9,6.6-1.35,10-1.35s6.8.45,10,1.35c7.65-5.2,11-4.1,11-4.1,2.2,5.5.8,9.6.4,10.6,2.55,2.8,4.1,6.35,4.1,10.75,0,15.35-9.35,18.75-18.25,19.75,1.45,1.25,2.7,3.65,2.7,7.4,0,5.35-.05,9.65-.05,11,0,1.05.75,2.3,2.75,1.9,15.8-5.3,27.25-20.3,27.25-37.95,0-22.1-17.9-40-40-40Z"/>
    </g>
  </g>
</svg>