<?xml version="1.0" encoding="UTF-8"?>
<svg id="Layer_2" data-name="Layer 2" xmlns="http://www.w3.org/2000/svg" viewBox="0 0 100 100">
  <defs>
    <style>
      .cls-1 {
        fill: #3d3d3d;
      }

      .cls-1, .cls-2 {
        stroke-width: 0px;
      }

      .cls-2 {
        fill: #171717;
      }
    </style>
  </defs>
  <g id="Layer_1-2" data-name="Layer 1">
    <g>
      <rect class="cls-1" width="100" height="100" rx="16" ry="16"/>
      <path class="cls-2" d="M29.46,62.06c0,1.34,1.1,2.44,2.44,2.44h36.46c1.34,0,2.44-1.1,2.44-2.44s-1.1-2.44-2.44-2.44H31.9c-1.35,0-2.44,1.1-2.44,2.44ZM68.36,71.96H31.9c-1.34,0-2.44,1.1-2.44,2.44s1.1,2.44,2.44,2.44h36.46c1.34,0,2.44-1.1,2.44-2.44s-1.1-2.44-2.44-2.44ZM58.66,10H22.31c-2.69,0-4.88,2.19-4.88,4.88v70.25c0,2.69,2.19,4.88,4.88,4.88h55.37c2.69,0,4.88-2.19,4.88-4.88v-51.22l-23.91-23.91h0ZM61.83,20.07l11.23,11.23h-10.39c-.45,0-.84-.39-.84-.84v-10.39h0ZM77.67,85.11s0,.01,0,0H22.31s-.01.01-.01,0V14.89s0-.01.01-.01h34.44l.19.19v15.38c0,3.15,2.58,5.72,5.72,5.72h15.02v48.95h0ZM40.38,35.75c4.3,0,7.78-3.48,7.78-7.78s-3.48-7.78-7.78-7.78-7.79,3.47-7.79,7.78,3.48,7.78,7.79,7.78ZM40.38,24.46c1.94,0,3.51,1.57,3.51,3.51s-1.57,3.51-3.51,3.51-3.51-1.57-3.51-3.51,1.57-3.51,3.51-3.51ZM31.9,49.16c1.35,0,2.44-1.09,2.44-2.44,0-2.64,2.77-4.88,6.05-4.88s6.05,2.22,6.05,4.88c0,1.35,1.09,2.44,2.44,2.44s2.44-1.09,2.44-2.44c0-5.37-4.9-9.75-10.92-9.75s-10.92,4.38-10.92,9.75c0,1.35,1.09,2.44,2.44,2.44Z"/>
    </g>
  </g>
</svg>