<?xml version="1.0" encoding="UTF-8"?>
<svg id="Layer_2" data-name="Layer 2" xmlns="http://www.w3.org/2000/svg" viewBox="0 0 128 128">
  <defs>
    <style>
      .cls-1 {
        fill: #231f20;
      }

      .cls-1, .cls-2 {
        stroke-width: 0px;
      }

      .cls-2 {
        fill: #fff;
      }
    </style>
  </defs>
  <g id="Layer_1-2" data-name="Layer 1">
    <g>
      <rect class="cls-1" width="128" height="128"/>
      <path class="cls-2" d="M7.52,103.65v-2.83l1.41-.21,6-17.09h5.25l6.01,17.09,1.41.21v2.83h-7.52v-2.83l1.31-.25-.61-2.18h-6.47l-.58,2.18,1.31.25v2.83h-7.54ZM15.34,94.98h4.41l-1.96-6.1-.22-.71h-.08l-.23.77-1.91,6.03ZM37.29,103.94c-1.64,0-3.1-.16-4.37-.47-1.27-.31-2.54-.9-3.8-1.77v-5.23h3.75l.42,2.68c.29.33.82.61,1.56.84.75.23,1.56.34,2.45.34.62,0,1.14-.08,1.55-.23.42-.15.73-.38.94-.67s.32-.65.32-1.07-.1-.75-.3-1.07c-.2-.31-.52-.61-.97-.89-.45-.28-1.06-.57-1.83-.86-1.72-.55-3.14-1.12-4.25-1.69s-1.93-1.25-2.47-2.03c-.54-.78-.81-1.76-.81-2.92s.32-2.09.95-2.93c.64-.83,1.51-1.49,2.63-1.97,1.11-.48,2.39-.73,3.83-.76,1.64-.04,3.09.13,4.36.49,1.26.36,2.38.92,3.35,1.65v4.85h-3.6l-.57-2.7c-.31-.16-.76-.3-1.34-.43-.58-.13-1.2-.19-1.85-.19-.56,0-1.06.07-1.5.22-.44.15-.78.37-1.04.66-.25.3-.38.66-.38,1.11,0,.36.11.68.32.96.21.28.59.56,1.12.84.53.28,1.28.61,2.24.97,2.29.67,4.02,1.51,5.21,2.52,1.19,1.01,1.78,2.38,1.78,4.11,0,1.19-.32,2.2-.97,3.04-.65.83-1.54,1.47-2.7,1.91-1.15.44-2.49.66-4.02.66ZM50.51,103.65v-2.83l2.1-.44v-13.1h-3.11l-.12,2.17h-3.67v-5.93h18.71v5.93h-3.71l-.11-2.17h-3.14v13.1l2.1.44v2.83h-9.06ZM81.85,100.35l-2.11-5.16c.89-.57,1.61-1.28,2.16-2.14.64-1.01.96-2.11.96-3.29,0-1.28-.32-2.39-.95-3.33-.64-.94-1.54-1.66-2.71-2.16s-2.55-.76-4.15-.76h-9.9v2.86l2.09.44v13.57l-2.09.44v2.83h9.03v-2.83l-2.09-.44v-4.02l3.3.04,2.51,7.26h5.86v-2.82l-1.91-.48ZM72.08,92.63v-5.41h2.96c.96,0,1.7.26,2.21.78.52.52.77,1.21.77,2.07s-.25,1.46-.76,1.9c-.51.44-1.23.66-2.17.66h-3.01ZM84.57,103.65v-2.83l1.41-.21,6-17.09h5.25l6.01,17.09,1.41.21v2.83h-7.52v-2.83l1.31-.25-.61-2.18h-6.47l-.58,2.18,1.31.25v2.83h-7.54ZM92.4,94.98h4.41l-1.96-6.1-.22-.71h-.08l-.23.77-1.91,6.03ZM105.53,103.65v-2.83l2.09-.44v-13.57l-2.09-.44v-2.85h9.49v2.85l-2.54.44v13.12h4.78l.11-2.81h3.71v6.53h-15.54ZM6.92,120.87v-1.93l1.42-.3v-9.23l-1.42-.3v-1.94h6.2c1.72,0,3.07.32,4.04.95.97.63,1.45,1.58,1.45,2.83,0,.65-.15,1.22-.46,1.74-.31.51-.78.9-1.42,1.16.55.12.99.32,1.34.61.34.29.6.63.76,1.03.16.41.25.84.25,1.31,0,1.34-.45,2.36-1.35,3.04s-2.2,1.03-3.91,1.03h-6.9ZM11.65,112.85h1.34c.78,0,1.36-.12,1.75-.37.39-.25.58-.63.58-1.15,0-.57-.18-.99-.54-1.25-.36-.26-.91-.39-1.64-.39h-1.48v3.16ZM11.65,118.36h2.17c.65,0,1.14-.13,1.47-.39.33-.26.49-.65.49-1.18,0-.4-.06-.72-.19-.98-.13-.26-.32-.45-.58-.58-.26-.13-.61-.19-1.03-.19h-2.33v3.32ZM19.7,120.87v-1.93l1.42-.3v-9.23l-1.42-.3v-1.94h10.94v3.95h-2.49l-.08-1.41h-3.65v2.81h4.38v2.53h-4.38v3.26h3.83l.08-1.48h2.47v4.03h-11.09ZM31.86,120.87v-1.93l.96-.14,4.08-11.63h3.58l4.09,11.63.96.14v1.93h-5.12v-1.93l.89-.17-.41-1.49h-4.4l-.4,1.49.89.17v1.93h-5.13ZM37.18,114.97h3l-1.34-4.15-.15-.48h-.06l-.16.53-1.3,4.1ZM48.26,120.87v-1.93l1.43-.3v-8.91h-2.12l-.08,1.48h-2.49v-4.04h12.73v4.04h-2.52l-.08-1.48h-2.14v8.91l1.43.3v1.93h-6.16ZM58.21,120.87v-1.93l1.44-.35v-9.13l-1.44-.36v-1.94h6.42c1.24,0,2.33.29,3.28.86.95.57,1.7,1.37,2.24,2.38.54,1.01.81,2.18.81,3.5v.22c0,1.32-.27,2.49-.81,3.5-.54,1.01-1.29,1.81-2.24,2.38-.95.57-2.05.86-3.28.86h-6.42ZM62.95,118.37h1.51c.7,0,1.28-.18,1.75-.53s.83-.84,1.07-1.48c.24-.64.36-1.38.36-2.22v-.23c0-.85-.12-1.59-.36-2.22-.24-.63-.6-1.13-1.07-1.48s-1.05-.53-1.75-.53h-1.51v8.68ZM78.75,121.07c-.95,0-1.82-.17-2.61-.52-.79-.35-1.48-.84-2.07-1.46s-1.03-1.36-1.35-2.21c-.32-.84-.47-1.76-.47-2.75v-.22c0-.98.16-1.9.47-2.74.32-.84.77-1.57,1.35-2.2.58-.63,1.27-1.12,2.06-1.47s1.66-.53,2.61-.53,1.79.18,2.59.53,1.49.84,2.09,1.47c.6.63,1.06,1.36,1.4,2.2.33.84.5,1.75.5,2.74v.22c0,.99-.17,1.91-.5,2.75-.33.84-.8,1.58-1.39,2.21s-1.29,1.11-2.09,1.46c-.8.35-1.66.52-2.58.52ZM78.75,118.56c.69,0,1.28-.19,1.77-.56s.86-.89,1.12-1.55.39-1.44.39-2.33v-.24c0-.87-.13-1.64-.39-2.3-.26-.66-.64-1.18-1.12-1.55-.49-.37-1.08-.55-1.78-.55-.73,0-1.34.18-1.8.55-.47.36-.81.87-1.04,1.53-.23.66-.34,1.43-.34,2.32v.24c0,.89.11,1.67.34,2.34.23.67.58,1.19,1.05,1.55.47.37,1.07.55,1.8.55ZM89.72,120.87l-3.16-11.62-1.55-.14v-1.94h6.18v1.94l-1.52.22,1.5,6.13.22.88h.06l.23-.89,2.68-8.27h2.28l2.82,8.66.2.59h.06l.16-.59,1.6-6.5-1.57-.22v-1.94h6.06v1.94l-1.46.14-3.3,11.62h-2.95l-2.36-7.08-.29-.98h-.06l-.37,1.03-2.4,7.03h-3.04ZM106.41,120.87v-1.93l1.41-.3v-9.23l-1.41-.3v-1.94h4.77l5.49,8.77h.06v-6.53l-1.8-.3v-1.94h6.14v1.94l-1.42.3v11.46h-3.26l-5.6-8.58h-.06v6.35l1.81.3v1.93h-6.14Z"/>
      <g>
        <path class="cls-2" d="M31.36,65.89c2.63-7.02,5.68-14.79,8.41-21.83,2.96-7.87,13.7-31.76,17.03-39.64,0,0,.58,4.15.58,4.15l9.36,67.33.51,3.7-2.54-2.73L25.55,34.79l-2.87-3.09c3.96,1.16,8.82,2.42,12.73,3.66,7.63,2.53,18.08,5.98,25.69,8.58-4.39-1.02-13.19-3.14-17.56-4.22,0,0-8.77-2.14-8.77-2.14-2.56-.63-6.11-1.75-8.68-2.47,0,0,1.19-1.93,1.19-1.93l39.14,42.07-2.03.96L55.03,8.89l2.25.31c-2.44,5.46-13.19,30.85-15.7,35.65-3.29,6.8-6.89,14.31-10.23,21.04h0Z"/>
        <path class="cls-2" d="M66.82,44.34c12.32,2.79,25.2,5.54,37.37,8.98-1.76,1.37-31.83,24.79-33.7,26.24-1.86-13.21-6.18-43.87-7.99-56.75-1.02-6-1.11-12.35-1.4-18.41.74,3,1.45,6,2.12,9.01.68,2.68,1.31,6.29,1.62,9.08,0,0,2.57,18.25,2.57,18.25l5.14,36.49-1.89-.77,30.22-23.53.41,2.07c-11.44-3.02-23.19-7.06-34.46-10.64h0Z"/>
      </g>
    </g>
  </g>
</svg>